<svg width="25" height="24" viewBox="0 0 25 24" fill="none" xmlns="http://www.w3.org/2000/svg">
<path d="M17 3.56V4.01584L17.4539 4.05787C18.7107 4.17424 19.5896 4.60009 20.1785 5.22534C20.7686 5.8518 21.1159 6.72969 21.2107 7.83991C21.2103 7.84 21.2101 7.84 21.21 7.84H21.21H4.29161C4.29098 7.83968 4.29018 7.83919 4.28936 7.83853C4.38436 6.72896 4.73156 5.85155 5.32144 5.22534C5.91041 4.60009 6.7893 4.17424 8.04608 4.05787L8.49999 4.01584V3.56V2C8.49999 1.86614 8.61613 1.75 8.74999 1.75C8.88384 1.75 8.99999 1.86614 8.99999 2V3.5V4H9.49999H16H16.5V3.5V2C16.5 1.86614 16.6161 1.75 16.75 1.75C16.8838 1.75 17 1.86614 17 2V3.56Z" fill="currentColor" stroke="currentColor"/>
<path d="M20.75 9.84009H4.75C4.2 9.84009 3.75 10.2901 3.75 10.8401V17.0001C3.75 20.0001 5.25 22.0001 8.75 22.0001H16.75C20.25 22.0001 21.75 20.0001 21.75 17.0001V10.8401C21.75 10.2901 21.3 9.84009 20.75 9.84009ZM9.96 18.2101C9.91 18.2501 9.86 18.3001 9.81 18.3301C9.75 18.3701 9.69 18.4001 9.63 18.4201C9.57 18.4501 9.51 18.4701 9.45 18.4801C9.38 18.4901 9.32 18.5001 9.25 18.5001C9.12 18.5001 8.99 18.4701 8.87 18.4201C8.74 18.3701 8.64 18.3001 8.54 18.2101C8.36 18.0201 8.25 17.7601 8.25 17.5001C8.25 17.2401 8.36 16.9801 8.54 16.7901C8.64 16.7001 8.74 16.6301 8.87 16.5801C9.05 16.5001 9.25 16.4801 9.45 16.5201C9.51 16.5301 9.57 16.5501 9.63 16.5801C9.69 16.6001 9.75 16.6301 9.81 16.6701C9.86 16.7101 9.91 16.7501 9.96 16.7901C10.14 16.9801 10.25 17.2401 10.25 17.5001C10.25 17.7601 10.14 18.0201 9.96 18.2101ZM9.96 14.7101C9.77 14.8901 9.51 15.0001 9.25 15.0001C8.99 15.0001 8.73 14.8901 8.54 14.7101C8.36 14.5201 8.25 14.2601 8.25 14.0001C8.25 13.7401 8.36 13.4801 8.54 13.2901C8.82 13.0101 9.26 12.9201 9.63 13.0801C9.76 13.1301 9.87 13.2001 9.96 13.2901C10.14 13.4801 10.25 13.7401 10.25 14.0001C10.25 14.2601 10.14 14.5201 9.96 14.7101ZM13.46 18.2101C13.27 18.3901 13.01 18.5001 12.75 18.5001C12.49 18.5001 12.23 18.3901 12.04 18.2101C11.86 18.0201 11.75 17.7601 11.75 17.5001C11.75 17.2401 11.86 16.9801 12.04 16.7901C12.41 16.4201 13.09 16.4201 13.46 16.7901C13.64 16.9801 13.75 17.2401 13.75 17.5001C13.75 17.7601 13.64 18.0201 13.46 18.2101ZM13.46 14.7101C13.41 14.7501 13.36 14.7901 13.31 14.8301C13.25 14.8701 13.19 14.9001 13.13 14.9201C13.07 14.9501 13.01 14.9701 12.95 14.9801C12.88 14.9901 12.82 15.0001 12.75 15.0001C12.49 15.0001 12.23 14.8901 12.04 14.7101C11.86 14.5201 11.75 14.2601 11.75 14.0001C11.75 13.7401 11.86 13.4801 12.04 13.2901C12.13 13.2001 12.24 13.1301 12.37 13.0801C12.74 12.9201 13.18 13.0101 13.46 13.2901C13.64 13.4801 13.75 13.7401 13.75 14.0001C13.75 14.2601 13.64 14.5201 13.46 14.7101ZM16.96 18.2101C16.77 18.3901 16.51 18.5001 16.25 18.5001C15.99 18.5001 15.73 18.3901 15.54 18.2101C15.36 18.0201 15.25 17.7601 15.25 17.5001C15.25 17.2401 15.36 16.9801 15.54 16.7901C15.91 16.4201 16.59 16.4201 16.96 16.7901C17.14 16.9801 17.25 17.2401 17.25 17.5001C17.25 17.7601 17.14 18.0201 16.96 18.2101ZM16.96 14.7101C16.91 14.7501 16.86 14.7901 16.81 14.8301C16.75 14.8701 16.69 14.9001 16.63 14.9201C16.57 14.9501 16.51 14.9701 16.45 14.9801C16.38 14.9901 16.31 15.0001 16.25 15.0001C15.99 15.0001 15.73 14.8901 15.54 14.7101C15.36 14.5201 15.25 14.2601 15.25 14.0001C15.25 13.7401 15.36 13.4801 15.54 13.2901C15.64 13.2001 15.74 13.1301 15.87 13.0801C16.05 13.0001 16.25 12.9801 16.45 13.0201C16.51 13.0301 16.57 13.0501 16.63 13.0801C16.69 13.1001 16.75 13.1301 16.81 13.1701C16.86 13.2101 16.91 13.2501 16.96 13.2901C17.14 13.4801 17.25 13.7401 17.25 14.0001C17.25 14.2601 17.14 14.5201 16.96 14.7101Z" fill="currentColor"/>
</svg>
