<svg width="16" height="14" viewBox="0 0 16 14" fill="currentColor" xmlns="http://www.w3.org/2000/svg">
<g clip-path="url(#clip0_26_6752)">
<path d="M7.99969 13.2709C4.15867 13.2709 1.03662 10.4592 1.03662 7.00008C1.03662 3.54091 4.15867 0.729248 7.99969 0.729248C11.8407 0.729248 14.9628 3.54091 14.9628 7.00008C14.9628 10.4592 11.8407 13.2709 7.99969 13.2709ZM7.99969 1.60425C4.69628 1.60425 2.00821 4.02508 2.00821 7.00008C2.00821 9.97508 4.69628 12.3959 7.99969 12.3959C11.3031 12.3959 13.9912 9.97508 13.9912 7.00008C13.9912 4.02508 11.3031 1.60425 7.99969 1.60425Z"/>
<path d="M10.4028 9.29253C10.3186 9.29253 10.2344 9.27503 10.1567 9.22836L8.14872 8.14919C7.64997 7.88086 7.28076 7.29169 7.28076 6.77253V4.38086C7.28076 4.14169 7.50099 3.94336 7.76656 3.94336C8.03213 3.94336 8.25235 4.14169 8.25235 4.38086V6.77253C8.25235 6.98253 8.44667 7.29169 8.64747 7.39669L10.6554 8.47586C10.8886 8.59836 10.9599 8.86669 10.8238 9.07669C10.7267 9.21669 10.5647 9.29253 10.4028 9.29253Z"/>
</g>
<defs>
<clipPath id="clip0_26_6752">
<rect width="15.5455" height="14" fill="currentColor" transform="translate(0.227051)"/>
</clipPath>
</defs>
</svg>
