<svg width="22" height="22" viewBox="0 0 22 22" fill="none" xmlns="http://www.w3.org/2000/svg">
<path d="M15.6672 19.9084C17.9619 19.9084 19.8222 18.0157 19.8222 15.6809C19.8222 13.3461 17.9619 11.4534 15.6672 11.4534C13.3725 11.4534 11.5122 13.3461 11.5122 15.6809C11.5122 18.0157 13.3725 19.9084 15.6672 19.9084Z" stroke="#FBD1A2" stroke-width="1.5" stroke-miterlimit="10" stroke-linecap="round" stroke-linejoin="round"/>
<path d="M17.2166 15.7336H14.1177" stroke="#FBD1A2" stroke-width="1.5" stroke-miterlimit="10" stroke-linecap="round" stroke-linejoin="round"/>
<path d="M15.667 14.1924V17.3542" stroke="#FBD1A2" stroke-width="1.5" stroke-miterlimit="10" stroke-linecap="round" stroke-linejoin="round"/>
<path d="M19.8223 8.18578C19.8223 9.92083 19.3808 11.4533 18.6883 12.7832C17.9266 11.9641 16.8532 11.4533 15.6673 11.4533C13.3734 11.4533 11.5123 13.3469 11.5123 15.6808C11.5123 16.7641 11.9191 17.7506 12.577 18.4992C12.2567 18.6489 11.9624 18.7722 11.7027 18.8603C11.4084 18.966 10.9236 18.966 10.6293 18.8603C8.11902 17.9884 2.50977 14.3509 2.50977 8.18578C2.50977 5.46431 4.66517 3.26245 7.32264 3.26245C8.88942 3.26245 10.2917 4.03753 11.166 5.22653C12.0403 4.03753 13.4426 3.26245 15.0094 3.26245C17.6669 3.26245 19.8223 5.46431 19.8223 8.18578Z" stroke="#FBD1A2" stroke-width="1.5" stroke-linecap="round" stroke-linejoin="round"/>
</svg>
