<svg width="23" height="26" viewBox="0 0 23 26" fill="none" xmlns="http://www.w3.org/2000/svg">
<path fill-rule="evenodd" clip-rule="evenodd" d="M11.1 0C15.525 0 20.5625 2.6 21.875 8.375C23.3375 14.825 19.3875 20.275 15.8125 23.7125C14.5 24.9875 12.8 25.625 11.1 25.625C9.39998 25.625 7.69997 24.9875 6.37497 23.7125C2.79997 20.275 -1.15002 14.8125 0.312471 8.3625C1.62497 2.5875 6.67497 0 11.0875 0H11.1ZM12.0584 6.85719L11.3983 5.53719C11.0421 4.82094 10.4571 4.82094 10.0971 5.53719L9.4371 6.85719C9.34711 7.04094 9.1071 7.21719 8.90836 7.25094L7.7121 7.44968C6.9471 7.57719 6.77084 8.13219 7.31835 8.67969L8.24835 9.60969C8.40585 9.76719 8.4921 10.0709 8.44335 10.2884L8.17709 11.4397C7.9671 12.3472 8.45461 12.7034 9.2571 12.2272L10.3784 11.5634C10.5846 11.4434 10.9184 11.4434 11.1209 11.5634L12.2421 12.2272C13.0484 12.7034 13.5321 12.3509 13.3221 11.4397L13.0558 10.2884C13.0071 10.0709 13.0934 9.76719 13.2509 9.60969L14.1808 8.67969C14.7321 8.13219 14.5521 7.57719 13.7871 7.44968L12.5909 7.25094C12.3884 7.21719 12.1483 7.04094 12.0584 6.85719Z" fill="currentColor"/>
</svg>
