<svg width="9" height="9" viewBox="0 0 9 9" fill="none" xmlns="http://www.w3.org/2000/svg">
<path d="M4.24982 5.17376C3.55092 5.17376 2.97998 4.61826 2.97998 3.9311C2.97998 3.24394 3.55092 2.69165 4.24982 2.69165C4.94873 2.69165 5.51967 3.24716 5.51967 3.93431C5.51967 4.62147 4.94873 5.17376 4.24982 5.17376ZM4.24982 3.1733C3.82326 3.1733 3.47217 3.51367 3.47217 3.93431C3.47217 4.35495 3.81998 4.69532 4.24982 4.69532C4.67967 4.69532 5.02748 4.35495 5.02748 3.93431C5.02748 3.51367 4.67639 3.1733 4.24982 3.1733Z" fill="currentColor"/>
<path d="M4.25005 7.93203C3.76443 7.93203 3.27552 7.75221 2.89489 7.39579C1.92693 6.48386 0.857238 5.02927 1.26083 3.29854C1.62505 1.72836 3.02614 1.02515 4.25005 1.02515C4.25005 1.02515 4.25005 1.02515 4.25333 1.02515C5.47724 1.02515 6.87833 1.72836 7.24255 3.30175C7.64286 5.03249 6.57317 6.48386 5.60521 7.39579C5.22458 7.75221 4.73568 7.93203 4.25005 7.93203ZM4.25005 1.5068C3.29521 1.5068 2.06802 2.0045 1.74318 3.4045C1.3888 4.91689 2.36005 6.22056 3.23943 7.04579C3.80708 7.58203 4.6963 7.58203 5.26396 7.04579C6.14005 6.22056 7.1113 4.91689 6.76349 3.4045C6.43536 2.0045 5.20489 1.5068 4.25005 1.5068Z" fill="currentColor"/>
</svg>
