<svg width="9" height="9" viewBox="0 0 9 9" fill="none" xmlns="http://www.w3.org/2000/svg">
<path d="M4.25016 7.1555C3.66282 7.1555 3.07547 6.93716 2.62594 6.49725C1.73016 5.62064 1.73016 4.19495 2.62594 3.31834C3.52172 2.44174 4.9786 2.44174 5.87438 3.31834C6.77016 4.19495 6.77016 5.62064 5.87438 6.49725C5.42485 6.93716 4.8375 7.1555 4.25016 7.1555ZM4.25016 3.14174C3.7875 3.14174 3.32484 3.31513 2.97375 3.65871C2.27156 4.34908 2.27156 5.46652 2.97375 6.15688C3.67922 6.84725 4.82438 6.84404 5.52657 6.15688C6.22876 5.46652 6.22876 4.34908 5.52657 3.65871C5.17548 3.31513 4.71282 3.14174 4.25016 3.14174Z" fill="currentColor"/>
<path d="M3.01953 8.12536C2.99 8.12536 2.95718 8.11894 2.92765 8.1093C2.18937 7.82031 1.59218 7.30975 1.19187 6.63544C0.804681 5.97719 0.650464 5.23224 0.752183 4.47444C0.768589 4.34279 0.893275 4.24966 1.02781 4.26572C1.16234 4.28177 1.25749 4.4038 1.24109 4.53545C1.15577 5.18407 1.28703 5.82626 1.61844 6.3914C1.95969 6.96938 2.47484 7.40929 3.10812 7.65654C3.23281 7.70792 3.29515 7.84598 3.24593 7.97121C3.20984 8.06754 3.11468 8.12536 3.01953 8.12536Z" fill="currentColor"/>
<path d="M2.23209 2.61502C2.1599 2.61502 2.08771 2.58292 2.03849 2.52191C1.95318 2.41594 1.97287 2.26503 2.08115 2.18476C2.70787 1.70632 3.45599 1.45264 4.25005 1.45264C5.02443 1.45264 5.76271 1.69668 6.38287 2.15906C6.49115 2.23934 6.51084 2.39025 6.42881 2.49621C6.34678 2.60218 6.19255 2.62145 6.08427 2.54117C5.55271 2.14301 4.91943 1.93429 4.25005 1.93429C3.56755 1.93429 2.92115 2.15264 2.38302 2.56365C2.33708 2.59897 2.28459 2.61502 2.23209 2.61502Z" fill="currentColor"/>
<path d="M5.48036 8.12531C5.38192 8.12531 5.29005 8.06751 5.25067 7.97439C5.20145 7.85237 5.26052 7.71109 5.38849 7.65971C6.02177 7.40926 6.53693 6.97256 6.87818 6.39458C7.21287 5.82944 7.34411 5.18723 7.25552 4.5386C7.23911 4.40695 7.33427 4.28494 7.4688 4.26889C7.60005 4.25283 7.72802 4.34596 7.74442 4.47761C7.84286 5.2322 7.69192 5.98036 7.30474 6.63862C6.9077 7.31293 6.30723 7.82026 5.56895 8.11246C5.5427 8.11888 5.51317 8.12531 5.48036 8.12531Z" fill="currentColor"/>
</svg>
