<svg width="16" height="14" viewBox="0 0 16 14" fill="none" xmlns="http://www.w3.org/2000/svg">
<path d="M11.8863 4.61428C11.8668 4.61428 11.8539 4.61428 11.8344 4.61428H11.8021C10.5778 4.57928 9.66455 3.72761 9.66455 2.67761C9.66455 1.60428 10.6361 0.735107 11.8215 0.735107C13.0068 0.735107 13.9784 1.61011 13.9784 2.67761C13.9719 3.73344 13.0586 4.58511 11.8927 4.62011C11.8927 4.61428 11.8927 4.61428 11.8863 4.61428ZM11.8215 1.60428C11.1673 1.60428 10.6361 2.08261 10.6361 2.67178C10.6361 3.24928 11.1349 3.71595 11.7761 3.73928C11.7826 3.73345 11.8344 3.73345 11.8927 3.73928C12.521 3.71011 13.0068 3.24345 13.0133 2.67178C13.0133 2.08261 12.4822 1.60428 11.8215 1.60428Z" fill="currentColor"/>
<path d="M11.8924 8.91346C11.6398 8.91346 11.3872 8.89596 11.1346 8.85512C10.869 8.81429 10.6941 8.58679 10.7395 8.34763C10.7848 8.10846 11.0374 7.95096 11.303 7.99179C12.0997 8.11429 12.9417 7.98013 13.5053 7.6418C13.8097 7.46097 13.9716 7.23346 13.9716 7.00596C13.9716 6.77846 13.8032 6.55679 13.5053 6.37596C12.9417 6.03762 12.0867 5.90346 11.2836 6.03179C11.018 6.07846 10.7654 5.91513 10.72 5.67596C10.6747 5.43679 10.8496 5.2093 11.1152 5.16846C12.1709 4.9993 13.2656 5.18012 14.0429 5.64679C14.6129 5.99096 14.9432 6.48096 14.9432 7.00596C14.9432 7.52513 14.6194 8.02097 14.0429 8.37097C13.4534 8.72097 12.6891 8.91346 11.8924 8.91346Z" fill="currentColor"/>
<path d="M4.09375 4.61425C4.08728 4.61425 4.0808 4.61425 4.0808 4.61425C2.91489 4.57925 2.00159 3.72758 1.99512 2.67758C1.99512 1.60425 2.96671 0.729248 4.15205 0.729248C5.33739 0.729248 6.30898 1.60425 6.30898 2.67175C6.30898 3.72758 5.39569 4.57925 4.22978 4.61425L4.09375 4.17675L4.1391 4.61425C4.12614 4.61425 4.10671 4.61425 4.09375 4.61425ZM4.15853 3.73925C4.19739 3.73925 4.22978 3.73925 4.26864 3.74508C4.84512 3.72175 5.35034 3.25508 5.35034 2.67758C5.35034 2.08841 4.81921 1.61008 4.16501 1.61008C3.5108 1.61008 2.97966 2.08841 2.97966 2.67758C2.97966 3.24925 3.47194 3.71008 4.10023 3.74508C4.10671 3.73925 4.13262 3.73925 4.15853 3.73925Z" fill="currentColor"/>
<path d="M4.08742 8.91346C3.29071 8.91346 2.52639 8.72097 1.93696 8.37097C1.36696 8.0268 1.03662 7.53096 1.03662 7.00596C1.03662 6.48679 1.36696 5.99096 1.93696 5.64679C2.71423 5.18012 3.80889 4.9993 4.86469 5.16846C5.13026 5.2093 5.30514 5.43679 5.2598 5.67596C5.21446 5.91513 4.96185 6.07846 4.69628 6.03179C3.8931 5.90346 3.04458 6.03762 2.47458 6.37596C2.17014 6.55679 2.00821 6.77846 2.00821 7.00596C2.00821 7.23346 2.17662 7.46097 2.47458 7.6418C3.0381 7.98013 3.88014 8.11429 4.67685 7.99179C4.94242 7.95096 5.19503 8.11429 5.24037 8.34763C5.28571 8.58679 5.11083 8.81429 4.84526 8.85512C4.59264 8.89596 4.34003 8.91346 4.08742 8.91346Z" fill="currentColor"/>
<path d="M7.99954 8.9717C7.98011 8.9717 7.96715 8.9717 7.94772 8.9717H7.91533C6.69113 8.9367 5.77783 8.08503 5.77783 7.03503C5.77783 5.9617 6.74942 5.09253 7.93477 5.09253C9.12011 5.09253 10.0917 5.96753 10.0917 7.03503C10.0852 8.09086 9.17192 8.94253 8.00601 8.97753C8.00601 8.9717 8.00601 8.9717 7.99954 8.9717ZM7.93477 5.9617C7.28056 5.9617 6.74942 6.44003 6.74942 7.0292C6.74942 7.6067 7.24817 8.07337 7.88942 8.0967C7.8959 8.09087 7.94772 8.09087 8.00601 8.0967C8.63431 8.06753 9.12011 7.60087 9.12658 7.0292C9.12658 6.44587 8.59545 5.9617 7.93477 5.9617Z" fill="currentColor"/>
<path d="M7.99966 13.2767C7.22238 13.2767 6.44511 13.0958 5.84272 12.7283C5.27272 12.3842 4.94238 11.8942 4.94238 11.3692C4.94238 10.85 5.26625 10.3483 5.84272 10.0042C7.05397 9.28084 8.95182 9.28084 10.1566 10.0042C10.7266 10.3483 11.0569 10.8383 11.0569 11.3633C11.0569 11.8825 10.7331 12.3842 10.1566 12.7283C9.5542 13.09 8.77693 13.2767 7.99966 13.2767ZM6.38034 10.7392C6.07591 10.92 5.91397 11.1475 5.91397 11.375C5.91397 11.6025 6.08238 11.8242 6.38034 12.005C7.25477 12.5358 8.73807 12.5358 9.6125 12.005C9.91693 11.8242 10.0789 11.5967 10.0789 11.3692C10.0789 11.1417 9.91045 10.92 9.6125 10.7392C8.74454 10.2083 7.26125 10.2142 6.38034 10.7392Z" fill="currentColor"/>
</svg>
